<svg width="21" height="19" viewBox="0 0 21 19" fill="none" xmlns="http://www.w3.org/2000/svg">
<path fill-rule="evenodd" clip-rule="evenodd" d="M16.4414 2.70605H4.44141C3.33684 2.70605 2.44141 3.60149 2.44141 4.70605V14.7061C2.44141 15.8106 3.33684 16.7061 4.44141 16.7061H16.4414C17.546 16.7061 18.4414 15.8106 18.4414 14.7061V13.7061H14.4414C12.2323 13.7061 10.4414 11.9152 10.4414 9.70605C10.4414 7.49692 12.2323 5.70605 14.4414 5.70605H18.4414V4.70605C18.4414 3.60149 17.546 2.70605 16.4414 2.70605ZM12.4414 9.70605C12.4414 8.60149 13.3368 7.70605 14.4414 7.70605H18.4414V11.7061H14.4414C13.3368 11.7061 12.4414 10.8106 12.4414 9.70605ZM20.4414 14.7061V13.7061V11.7061V7.70605V5.70605V4.70605C20.4414 2.49692 18.6505 0.706055 16.4414 0.706055H4.44141C2.23227 0.706055 0.441406 2.49692 0.441406 4.70605V14.7061C0.441406 16.9152 2.23227 18.7061 4.44141 18.7061H16.4414C18.6505 18.7061 20.4414 16.9152 20.4414 14.7061ZM14.4414 10.7061C14.9937 10.7061 15.4414 10.2583 15.4414 9.70605C15.4414 9.15377 14.9937 8.70605 14.4414 8.70605C13.8891 8.70605 13.4414 9.15377 13.4414 9.70605C13.4414 10.2583 13.8891 10.7061 14.4414 10.7061Z" fill="#EDF0FF"/>
</svg>
