<svg width="456" height="456" viewBox="0 0 456 456" fill="#fff" xmlns="http://www.w3.org/2000/svg">
	<path fill-rule="evenodd" clip-rule="evenodd" d="M235.707 137.931L274.92 20.849C279.764 5.61976 295.728 -3.11078 311.167 1.02537C326.605 5.16151 336.064 20.7027 332.643 36.3133L305.453 157.231C398.961 188.549 463.661 233.86 455.269 265.177C445.723 300.794 345.246 304.823 230.846 274.174C116.446 243.526 31.4445 189.807 40.9898 154.189C41.8884 150.836 43.5928 147.763 46.0388 144.973C57.5992 129.272 103.458 95.3981 208.224 101.585C186.604 102.234 162.178 111.995 145.267 125.106C172.365 126.492 203.153 130.742 235.707 137.931ZM237.512 187.009L291.365 26.2161L291.405 26.0907C293.259 20.263 298.974 16.692 304.881 17.3845L257.274 195.026C248.724 192.736 241.847 189.705 237.512 187.009Z" />
	<path d="M19.1614 266.758C234.989 358.658 404.277 331.654 454.467 288.676C448.016 301.521 439.611 316.891 432.534 329.54C423.447 345.782 409.184 358.377 392.108 365.78C386.441 368.238 380.016 371.027 372.996 374.082C325.224 392.078 269.421 399.008 206.726 391.486C206.726 391.486 236.291 405.745 289.196 410.847C255.032 425.98 220.095 441.669 192.73 454.44C189.169 456.102 185.175 456.444 181.379 455.427C177.583 454.41 174.296 452.115 172.037 448.899C145.422 410.997 106.505 359.251 75.4685 318.554C46.4351 300.883 18.1002 279.175 0 258.076C5.71482 260.854 12.0842 263.745 19.1614 266.758Z" />
</svg>
