<svg width="914" height="914" viewBox="0 0 914 914" fill="none" xmlns="http://www.w3.org/2000/svg">
<path style="mix-blend-mode:screen" d="M685.186 685.186C811.325 559.047 811.325 354.534 685.186 228.395C559.047 102.256 354.535 102.256 228.395 228.395C102.256 354.534 102.256 559.047 228.395 685.186C354.535 811.325 559.047 811.325 685.186 685.186Z" fill="url(#paint0_radial_610_712)"/>
<path style="mix-blend-mode:screen" d="M647.964 647.964C753.546 542.382 753.546 371.199 647.964 265.617C542.382 160.035 371.199 160.035 265.617 265.617C160.035 371.199 160.035 542.382 265.617 647.964C371.199 753.546 542.382 753.546 647.964 647.964Z" fill="url(#paint1_radial_610_712)"/>
<path style="mix-blend-mode:screen" d="M651.353 651.353C758.807 543.899 758.807 369.682 651.353 262.228C543.899 154.775 369.682 154.775 262.228 262.228C154.775 369.682 154.774 543.899 262.228 651.353C369.682 758.807 543.899 758.807 651.353 651.353Z" fill="url(#paint2_radial_610_712)"/>
<path fill-rule="evenodd" clip-rule="evenodd" d="M690.301 456.922C690.328 487.573 684.31 517.928 672.591 546.251C660.873 574.573 643.684 600.306 622.008 621.977C600.332 643.649 574.595 660.832 546.271 672.545C517.946 684.257 487.589 690.269 456.938 690.236C452.801 690.236 448.615 690.137 444.526 689.891H444.478C438.37 689.595 432.312 689.004 426.352 688.266C382.42 682.514 341.057 664.293 307.159 635.761C285.293 617.363 266.923 595.172 252.931 570.255C251.502 567.693 250.123 565.083 248.744 562.472C248.744 562.374 248.696 562.325 248.646 562.226C247.217 559.419 245.888 556.611 244.608 553.755H244.558C240.475 544.8 236.986 535.586 234.116 526.172C231.936 519.31 230.111 512.34 228.65 505.289C228.61 505.232 228.593 505.162 228.6 505.093C227.565 500.118 226.679 495.094 225.989 490.021C224.404 479.06 223.614 467.998 223.625 456.922C223.625 450.47 223.871 444.018 224.462 437.714C224.758 433.675 225.201 429.686 225.743 425.696C228.695 403.169 234.986 381.207 244.41 360.534C262.951 319.712 292.85 285.089 330.536 260.8C368.222 236.512 412.103 223.583 456.939 223.56C459.401 223.56 461.864 223.609 464.277 223.659C466.888 223.757 469.498 223.855 472.109 224.053C485.306 224.905 498.405 226.882 511.266 229.963C518.654 231.736 525.893 233.805 532.986 236.268C537.812 237.893 542.541 239.715 547.22 241.685C550.717 243.163 554.115 244.69 557.514 246.315C558.105 246.61 558.696 246.857 559.288 247.153C581.811 258.169 602.416 272.737 620.312 290.299C622.873 292.761 625.336 295.322 627.799 297.933C629.424 299.706 631.049 301.528 632.625 303.35C635.335 306.404 637.945 309.606 640.506 312.807C660.887 338.722 675.526 368.674 683.455 400.675C688.02 419.075 690.319 437.964 690.301 456.922V456.922Z" fill="url(#paint3_radial_610_712)"/>
<path fill-rule="evenodd" clip-rule="evenodd" d="M559.275 247.167C558.501 247.235 557.731 247.343 556.969 247.49C554.537 247.937 552.033 247.77 549.683 247.005C547.992 246.357 546.261 245.816 544.502 245.386C541.668 244.941 539.038 243.727 536.204 243.362C533.314 242.801 530.491 241.933 527.785 240.772C525.997 240.104 524.028 240.104 522.24 240.772C520.316 241.091 518.341 240.688 516.695 239.639C514.574 238.884 512.374 238.368 510.138 238.1C504.229 236.886 498.36 234.984 492.491 233.486C488.97 232.719 485.367 232.392 481.765 232.515C478.851 232.474 476.22 233.324 473.306 233.324C471.445 233.262 469.591 233.059 467.761 232.717C465.777 232.353 463.753 232.758 461.771 232.474C459.304 231.8 456.701 231.814 454.242 232.515C452.226 233.069 450.14 233.328 448.05 233.284C445.453 233.509 442.88 233.956 440.359 234.62C435.898 235.743 431.319 236.327 426.719 236.36C423.967 236.36 419.919 235.591 417.288 236.522C415.589 237.129 414.739 238.951 413.565 240.165C411.083 242.362 408.757 244.729 406.603 247.248C404.701 249.879 402.555 252.591 402.717 255.91C403.095 259.006 404.027 262.008 405.469 264.774C406.765 267.566 407.21 270.116 404.336 271.978C400.679 274.479 396.668 276.416 392.437 277.726C389.684 278.535 387.215 279.021 384.908 277.038C384.058 276.309 383.532 274.892 382.48 274.326C381.387 273.759 380.253 274.326 379.08 274.69C376.228 275.634 373.322 276.404 370.377 276.997C368.556 277.28 366.978 278.252 365.196 278.576C363.051 278.98 361.513 277.402 359.287 277.928C356.201 278.937 353.032 279.669 349.816 280.114C347.286 280.085 344.81 279.371 342.652 278.049C341.519 277.402 341.235 276.754 339.94 277.118C338.675 277.586 337.567 278.399 336.742 279.466C335.973 280.559 335.69 281.975 334.921 283.109C334.112 284.364 333.343 285.578 332.614 286.913C331.273 289.474 329.73 291.924 328 294.239C326.786 295.859 325.936 298.044 324.6 299.542C323.654 300.318 322.622 300.984 321.524 301.525C319.095 303.225 316.545 304.763 314.198 306.584C309.665 310.146 305.374 314.073 300.76 317.513C296.849 319.941 292.665 321.897 288.294 323.341C285.784 324.353 283.194 325.082 280.685 326.134C279.63 326.422 278.622 326.858 277.689 327.429C276.868 328.443 276.137 329.527 275.504 330.667C273.19 333.271 271.129 336.09 269.351 339.086C268.413 340.855 267.654 342.712 267.085 344.631C266.194 347.262 264.778 349.691 263.887 352.321C262.066 357.826 261.701 363.574 259.678 369.038C258.406 372.126 256.96 375.139 255.347 378.064C252.838 383.002 252.473 388.87 251.745 394.335C251.366 397.665 251.475 401.033 252.068 404.332C252.528 407.738 252.663 411.181 252.473 414.613C252.065 418.355 250.429 421.857 247.819 424.57C245.714 427.12 242.516 428.091 240.169 430.357C237.898 432.212 236.107 434.586 234.947 437.279C234.783 438.568 234.702 439.866 234.705 441.165C234.179 444.038 233.45 446.75 233.045 449.664C232.647 453.198 232.471 456.754 232.519 460.31C232.519 462.131 232.398 463.993 232.479 465.814C232.56 467.555 233.207 469.173 233.329 470.914C233.409 472.128 233.166 473.343 233.329 474.557C233.571 475.933 234.098 477.349 234.422 478.685C235.231 481.923 235.838 485.081 236.445 488.319C237.157 491.324 238.049 494.284 239.116 497.183C240.354 501.175 241.328 505.245 242.031 509.365C242.638 512.441 242.598 515.639 243.043 518.756C243.407 521.265 243.974 523.815 244.095 526.324C244.217 530.129 243.286 533.934 243.245 537.779C243.204 544.255 245.795 550.731 247.292 556.964C247.738 558.705 248.183 560.486 248.669 562.226C230.69 526.645 222.125 487.052 223.79 447.222C225.454 407.392 237.293 368.652 258.177 334.695C279.062 300.738 308.296 272.697 343.093 253.244C377.89 233.791 417.089 223.575 456.954 223.57C462.054 223.57 467.073 223.732 472.092 224.055C502.389 225.96 532.014 233.813 559.275 247.167V247.167Z" fill="url(#paint4_linear_610_712)"/>
<path style="mix-blend-mode:screen" fill-rule="evenodd" clip-rule="evenodd" d="M318.581 639.154C294.317 618.844 274.42 593.825 260.095 565.611C250.953 547.586 244.217 528.44 240.06 508.662C240.023 508.601 240.009 508.53 240.019 508.46C236.712 492.618 235.044 476.478 235.041 460.294C235.043 398.41 259.628 339.06 303.387 295.301C347.146 251.542 406.495 226.957 468.38 226.955C473.48 226.955 478.499 227.117 483.518 227.44C499.066 228.441 514.475 231.002 529.511 235.085C510.914 229.001 491.62 225.295 472.092 224.056C467.073 223.732 462.054 223.57 456.954 223.57C426.308 223.558 395.961 229.586 367.646 241.309C339.33 253.031 313.603 270.218 291.933 291.888C270.263 313.558 253.076 339.286 241.353 367.601C229.631 395.916 223.603 426.264 223.615 456.91C223.618 473.093 225.286 489.233 228.593 505.075C228.582 505.145 228.597 505.217 228.634 505.277C232.791 525.055 239.528 544.202 248.669 562.226C263.486 591.404 284.252 617.152 309.63 637.812C335.007 658.472 364.433 673.584 396.009 682.175C367.684 672.923 341.399 658.318 318.581 639.154V639.154Z" fill="url(#paint5_radial_610_712)"/>
<path style="mix-blend-mode:multiply" opacity="0.4" fill-rule="evenodd" clip-rule="evenodd" d="M511.266 229.963C498.405 226.882 485.306 224.905 472.109 224.053C469.498 223.855 466.888 223.757 464.277 223.659C469.843 226.762 475.014 232.228 476.295 237.844C478.413 247.448 481.516 256.363 483.289 265.967C485.063 275.424 484.718 287.146 480.433 295.716C477.814 301.047 474.373 305.934 470.237 310.197C467.184 313.3 464.573 315.023 462.406 318.865C460.238 322.609 458.17 326.253 455.707 329.799C452.101 335.289 448.204 340.584 444.034 345.659C442.443 347.248 440.962 348.943 439.601 350.732C438.35 353.167 436.918 355.505 435.316 357.726C431.13 362.405 424.628 365.016 418.866 367.134C411.695 369.895 404.718 373.136 397.983 376.836C388.083 382.057 379.956 388.756 368.382 389.052C364.539 389.15 360.55 388.608 356.709 388.953C351.93 389.347 347.498 391.661 342.769 392.548C338.632 393.337 334.495 394.174 330.357 394.863C323.56 395.898 317.946 398.213 311.395 399.789C302.875 401.907 293.959 401.365 285.389 402.547C277.656 403.581 270.958 404.517 263.274 402.645C251.405 399.69 245.051 394.075 247.562 381.466C249.238 373.191 248.647 366.887 244.41 360.533C234.986 381.207 228.695 403.169 225.743 425.696C231.182 427.865 236.905 429.242 242.736 429.784C260.024 431.557 278.641 423.824 294.452 417.914C302.53 414.86 310.754 410.427 319.473 409.442C328.633 408.457 336.712 409.59 345.872 407.324C377.444 399.542 408.572 388.51 436.745 371.813C448.418 364.917 453.589 355.066 461.717 345.068C468.902 336.626 476.831 328.845 485.407 321.82C493.78 314.678 501.168 307.586 506.143 297.588C511.611 286.919 515.699 275.599 518.309 263.898C519.444 258.057 519.406 252.049 518.197 246.223C516.987 240.397 514.631 234.87 511.266 229.963ZM509.689 261.682C509.304 264.339 508.761 266.971 508.064 269.563C506.045 275.818 502.301 282.27 496.44 285.57C495.108 286.304 493.542 286.494 492.073 286.099C490.604 285.704 489.344 284.756 488.559 283.452C487.911 281.868 487.528 280.187 487.426 278.478C486.793 275.299 486.48 272.065 486.491 268.824C486.597 260.981 486.285 253.139 485.555 245.33C486.392 249.812 485.358 238.68 492.352 235.627C494.199 235.006 496.18 234.903 498.082 235.328C499.983 235.754 501.732 236.692 503.138 238.04C506.291 241.242 507.029 246.659 508.211 250.847C509.556 254.29 510.063 258.004 509.689 261.682V261.682Z" fill="url(#paint6_linear_610_712)"/>
<path style="mix-blend-mode:multiply" opacity="0.4" fill-rule="evenodd" clip-rule="evenodd" d="M475.901 634.185C475.212 634.284 474.572 634.432 473.931 634.481L478.561 634.925C477.97 634.777 476.985 634.432 475.901 634.185ZM475.901 634.185C475.212 634.284 474.572 634.432 473.931 634.481L478.561 634.925C477.97 634.777 476.985 634.432 475.901 634.185ZM683.455 400.676C683.357 406.782 681.632 412.841 681.485 418.997C681.258 426.595 680.033 434.13 677.84 441.408C676.362 446.826 673.604 450.816 671.782 456.036C669.59 461.815 666.887 467.386 663.704 472.684C657.646 483.716 651.588 494.749 648.977 507.26C646.613 518.539 646.121 528.044 640.506 538.388C635.137 548.337 627.011 556.611 621.248 566.265C618.539 570.895 616.667 570.649 612.579 573.554C607.999 576.806 603.812 581.928 599.379 585.524C590.468 592.904 580.378 598.731 569.532 602.762C562.45 605.581 555.085 607.628 547.565 608.87C542.541 609.658 537.615 608.87 532.641 609.707C524.845 611.151 517.172 613.193 509.689 615.814C497.228 619.853 484.52 622.167 472.109 626.01C463.44 628.669 454.968 630.245 446.152 632.117C440.784 633.25 436.45 636.156 430.884 635.023C425.269 633.841 420.147 631.969 414.63 630.245C407.985 628.378 401.083 627.597 394.19 627.931C384.093 627.931 372.371 629.457 362.421 627.537C351.192 625.369 340.011 622.365 328.781 620.05C322.455 618.419 316.351 616.021 310.607 612.908C304.795 610.199 298.54 609.411 292.481 607.49C286.078 605.471 279.922 602.466 273.371 600.841C283.363 613.647 294.689 625.353 307.159 635.762C341.057 664.293 382.42 682.514 426.352 688.266C432.312 689.004 438.37 689.595 444.478 689.891H444.527C457.726 686.887 470.631 682.996 483.929 678.907C506.045 672.013 525.154 658.665 547.27 652.163C555.277 649.868 563.072 646.885 570.566 643.249C576.231 640.441 582.239 639.702 587.953 637.24C608.492 628.522 623.957 608.574 633.118 589.02C637.255 580.155 641.245 570.107 648.682 563.458C651.97 560.897 655.096 558.133 658.041 555.184C661.045 551.785 663.064 547.549 665.724 543.855C670.403 537.255 674.934 530.606 679.614 523.957C680.201 523.195 680.728 522.387 681.19 521.543C692.515 482.147 693.296 440.468 683.455 400.676H683.455ZM469.4 635.86C470.358 635.104 471.399 634.459 472.503 633.939C473.638 633.735 474.807 633.82 475.901 634.185C477.582 633.797 479.338 633.882 480.974 634.432C481.91 634.875 483.683 635.712 484.077 636.796C484.52 637.83 483.929 638.471 483.24 639.16C482.47 639.861 481.474 640.262 480.433 640.293C477.902 640.893 475.297 641.125 472.699 640.982C471.123 640.835 468.76 640.736 467.774 639.259C466.838 637.831 468.218 636.648 469.4 635.86ZM484.718 666.299C483.378 668.196 481.787 669.902 479.989 671.372C478.187 672.613 476.293 673.716 474.325 674.672C469.667 677.601 464.651 679.918 459.401 681.568C457.273 681.964 455.113 682.162 452.949 682.159C450.29 682.405 447.679 682.454 445.02 682.503C441.867 682.552 438.813 683.192 435.661 683.39C432.509 683.538 429.406 683.636 426.254 683.833C421.22 684.127 416.181 683.337 411.478 681.518C406.912 679.913 402.548 677.78 398.475 675.164C395.724 673.104 393.169 670.796 390.841 668.269C388.575 666.248 386.748 663.784 385.472 661.028C384.908 660.044 384.667 658.907 384.782 657.778C384.881 657.237 385.127 656.793 385.127 656.645C385.922 655.978 386.8 655.416 387.737 654.971C389.436 654.279 391.23 653.847 393.057 653.69C397.479 653.387 401.92 653.552 406.306 654.182C408.746 654.462 411.21 654.445 413.645 654.134C417.006 653.527 420.328 652.721 423.594 651.72C431.374 649.547 439.311 647.982 447.334 647.041C455.502 645.777 463.806 645.645 472.01 646.647C475.327 647.052 478.527 648.124 481.418 649.799C483.393 651.247 484.983 653.159 486.047 655.365C486.897 657.123 487.224 659.089 486.988 661.027C486.752 662.966 485.964 664.796 484.718 666.299V666.299ZM546.53 646.056C544.948 647.573 543.176 648.881 541.26 649.946C538.798 651.671 536.188 653.049 533.626 654.527C531.521 655.76 529.351 656.878 527.125 657.876C524.908 658.911 522.643 659.945 520.427 661.078C517.969 662.237 515.435 663.224 512.841 664.033C511.007 664.932 508.97 665.339 506.931 665.215C505.206 664.939 503.598 664.169 502.301 662.999C501.641 662.427 501.195 661.648 501.034 660.789C500.873 659.931 501.007 659.043 501.415 658.27C501.16 656.324 501.176 654.351 501.464 652.409C502.08 651.217 502.771 650.066 503.533 648.961C505.734 645.421 508.476 642.246 511.659 639.554C514.164 636.946 517.229 634.941 520.623 633.693C524.874 632.521 529.229 631.762 533.626 631.427C538.256 630.885 546.087 630.54 548.156 635.86C548.889 637.537 549.125 639.389 548.837 641.196C548.549 643.003 547.748 644.69 546.53 646.056ZM478.561 634.925C477.97 634.777 476.985 634.432 475.901 634.185C475.212 634.284 474.572 634.432 473.931 634.481L478.561 634.925Z" fill="url(#paint7_linear_610_712)"/>
<path style="mix-blend-mode:multiply" opacity="0.4" fill-rule="evenodd" clip-rule="evenodd" d="M664.837 350.831V351.767C664.542 358.219 661.931 362.652 659.616 368.513C657.736 373.119 655.581 377.61 653.164 381.959C649.076 389.445 647.155 396.489 644.15 404.517C639.471 417.077 637.108 429.932 629.769 441.359C623.168 451.554 621.642 464.064 616.273 474.949C610.215 487.115 600.955 495.833 591.007 504.699C586.573 508.688 582.879 513.466 578.89 517.8C574.654 522.38 571.354 528.29 566.281 531.936C555.298 539.915 543.28 546.81 532.542 555.233C526.09 560.256 521.509 566.955 514.417 571.141C507.324 575.377 499.641 578.332 492.598 582.617C486.402 586.768 479.879 590.408 473.094 593.502C465.213 596.654 458.662 595.718 450.585 596.113C441.48 596.734 432.509 598.641 423.939 601.777C416.945 604.24 411.083 606.752 403.942 604.24C399.214 602.565 394.928 599.462 389.954 598.428C378.379 596.063 365.179 598.428 353.408 598.132C343.852 597.524 334.362 596.124 325.038 593.945C316.172 592.222 308.932 586.016 300.362 583.504C289.772 580.4 277.41 583.061 267.166 579.022C262.995 576.957 259.022 574.517 255.295 571.732C254.507 571.24 253.719 570.747 252.931 570.255C251.502 567.693 250.123 565.083 248.744 562.472C251.256 563.507 253.768 564.639 256.33 565.871C269.726 572.274 286.423 571.289 300.854 573.801C317.108 576.657 333.362 580.894 349.763 582.765C356.394 583.487 363.084 583.471 369.711 582.716C378.97 581.682 388.575 581.829 397.687 580.253C413.546 577.446 429.012 569.959 445.462 572.077C448.516 572.471 451.914 574.097 455.017 574.047C459.598 573.899 462.75 569.909 466.444 567.595C472.946 563.507 479.792 564.295 485.505 558.927C491.095 553.988 497.386 549.904 504.173 546.81C522.003 537.748 536.434 523.021 550.421 509.033C562.144 497.36 573.521 484.997 581.549 470.418C589.43 456.085 587.854 439.043 593.765 424.169C598.05 413.53 601.645 403.532 608.589 394.174C611.939 389.692 616.027 385.85 619.574 381.565C623.014 376.954 626.031 372.042 628.586 366.888C631.788 361.174 635.827 355.904 638.388 349.846C640.802 344.034 640.604 338.912 640.506 332.853C640.407 326.204 640.506 319.457 640.506 312.807C649.85 324.649 658 337.385 664.837 350.831V350.831Z" fill="url(#paint8_linear_610_712)"/>
<path style="mix-blend-mode:multiply" opacity="0.4" fill-rule="evenodd" clip-rule="evenodd" d="M627.798 297.933C625.336 295.322 622.873 292.761 620.312 290.298C602.416 272.737 581.811 258.169 559.288 247.153C558.696 246.857 558.105 246.61 557.514 246.315C554.115 244.69 550.717 243.163 547.22 241.685C542.541 239.715 537.812 237.893 532.986 236.268C534.24 237.034 535.539 237.725 536.877 238.336C539.681 239.413 542.183 241.154 544.167 243.409C546.045 245.554 547.108 248.292 547.171 251.142C547.313 254.25 547.675 257.345 548.254 260.402C548.747 263.209 550.126 265.869 550.717 268.676C550.961 270.309 551.323 271.923 551.8 273.503C553.118 277.367 554.236 281.296 555.15 285.275C556.627 292.466 552.786 298.425 550.224 304.976C546.186 315.368 543.624 325.909 540.62 336.646C538.253 345.343 533.632 353.26 527.224 359.598C520.968 365.656 511.708 367.035 506.093 373.586C501.196 379.613 495.088 384.546 488.166 388.067C480.07 391.818 471.707 394.963 463.144 397.473C457.038 399.296 450.635 399.444 444.478 401.069C436.843 402.99 429.849 406.832 422.658 409.935C415.024 413.235 407.882 417.47 400.199 420.771C392.466 424.021 385.275 428.454 377.592 431.606C373.848 433.133 369.908 433.872 366.115 435.202C358.235 437.96 350.601 442.984 342.228 443.969C339.344 444.48 336.433 444.826 333.509 445.003C331.26 444.987 329.025 445.371 326.909 446.136C319.62 448.993 315.138 457.218 306.765 457.267C299.126 457.02 291.478 457.218 283.862 457.858C280.175 458.138 276.476 458.22 272.78 458.104C271.58 458.26 270.361 458.194 269.184 457.908C267.861 457.192 266.578 456.403 265.343 455.544C262.592 453.943 259.958 452.149 257.462 450.175C252.636 446.431 246.233 448.5 240.667 447.367C238.759 447.296 236.87 446.965 235.052 446.383C231.325 443.742 227.787 440.845 224.462 437.714C223.871 444.018 223.625 450.47 223.625 456.922C223.614 467.998 224.404 479.06 225.989 490.021C226.679 495.094 227.565 500.118 228.6 505.093C228.593 505.162 228.61 505.232 228.649 505.289C230.111 512.34 231.936 519.31 234.116 526.172C236.986 535.586 240.474 544.8 244.558 553.755H244.608C250.958 555.049 257.469 555.364 263.914 554.691C272.966 553.051 282.149 552.243 291.349 552.277C300.018 552.671 308.095 555.627 316.566 557.055C326.072 558.631 335.972 559.912 345.626 560.552C354.442 561.094 363.21 561.832 371.976 562.817C378.577 563.605 385.176 564.886 391.777 565.329C408.916 566.511 425.663 562.029 442.507 560.256C450.942 559.106 459.31 557.511 467.577 555.479C472.667 554.604 477.566 552.854 482.058 550.307C487.968 546.613 491.711 540.948 496.981 536.467C502.793 531.492 508.852 526.666 514.91 522.036C520.081 518.095 524.957 513.81 530.375 510.313C534.513 507.605 538.65 505.043 542.541 501.99C549.847 495.906 556.544 489.127 562.538 481.746C571.354 471.502 575 457.267 578.545 444.56C581.747 432.887 583.963 421.214 590.367 410.723C593.521 405.486 595.878 399.809 597.36 393.879C597.973 390.063 598.963 386.318 600.315 382.697C602.975 377.083 608.196 373.044 611.397 367.725C614.133 363.707 616.506 359.455 618.49 355.017C621.987 346.087 624.513 336.807 626.026 327.337C627.33 320.348 629.208 313.478 631.641 306.798C631.985 305.666 632.33 304.532 632.625 303.35C631.049 301.528 629.424 299.706 627.798 297.933ZM324.151 457.366C324.644 456.135 333.362 452.736 334.692 452.342C334.605 452.411 334.504 452.462 334.396 452.49L328.683 454.953C334.987 452.835 346.365 459.238 340.848 466.477C339.223 468.595 334.987 469.63 332.475 470.024C331.388 470.272 330.249 470.156 329.235 469.693C328.22 469.231 327.386 468.447 326.861 467.463C325.544 465.203 324.675 462.712 324.299 460.124C324.005 459.234 323.954 458.282 324.151 457.366ZM254.655 520.213C248.4 518.913 242.862 515.309 239.141 510.116C236.27 506.669 234.276 502.58 233.328 498.196C232.737 494.453 231.26 491.104 232.146 487.361C232.89 484.26 233.98 481.254 235.397 478.397C236.924 475.294 239.189 472.093 239.387 471.058C246.184 470.467 252.537 470.221 259.334 470.171C266.919 470.122 274.504 471.107 282.138 471.157C285.579 471.371 289.033 471.189 292.432 470.615C295.733 469.975 298.933 469.088 302.283 468.546C308.095 467.561 313.512 466.872 318.98 469.778C323.118 471.994 325.038 476.574 326.959 480.712C328.069 482.771 328.661 485.07 328.683 487.41C328.724 490.604 328.542 493.797 328.141 496.965C327.993 498.147 327.845 499.379 327.648 500.561C322.871 511.003 309.72 514.45 299.918 518.095C285.402 523.413 269.604 524.152 254.655 520.213V520.213ZM359.565 542.574C356.511 550.258 343.656 553.016 336.268 553.311C332.365 553.522 328.479 552.653 325.038 550.799C323.118 549.521 321.518 547.819 320.359 545.825C319.806 544.643 318.839 543.705 317.641 543.188C316.443 542.671 315.097 542.61 313.857 543.017C314.653 538.819 315.959 534.733 317.748 530.852C319.424 528.98 321.196 527.207 323.019 525.532C326.469 522.406 330.31 519.741 334.445 517.602C340.898 514.352 347.645 516.766 353.851 519.622C355.908 520.366 357.746 521.612 359.199 523.246C360.653 524.88 361.676 526.851 362.175 528.98C363.21 534.201 361.485 537.895 359.565 542.574V542.574ZM445.956 541.097C443.591 546.76 440.291 548.041 435.07 550.701C428.749 554.024 421.766 555.892 414.63 556.168C411.122 555.868 407.708 554.881 404.582 553.262C402.378 552.672 400.305 551.669 398.475 550.307C393.845 546.071 393.106 539.865 395.963 541.146C394.2 537.435 393.068 533.457 392.614 529.374C393.393 528.735 393.932 527.849 394.14 526.863C396.917 522.196 400.92 518.38 405.715 515.83C409.806 513.553 414.357 512.229 419.03 511.956C423.704 511.683 428.379 512.468 432.706 514.254C436.16 515.698 439.253 517.884 441.768 520.656C443.326 521.951 444.745 523.404 446.005 524.99C448.565 529.275 447.778 536.762 445.955 541.097H445.956ZM472.503 540.21C471.173 541.293 468.612 543.411 466.888 543.066C465.459 542.771 462.75 539.865 463.194 538.338L462.258 537.403C464.326 534.201 466.395 530.95 468.415 527.65C471.567 529.029 474.374 528.833 476.295 532.28C478.068 535.482 474.867 538.289 472.503 540.21V540.21ZM538.551 385.308C535.988 388.969 532.506 391.891 528.455 393.779C523.381 395.898 516.584 397.473 516.338 389.839C516.081 385.722 516.968 381.614 518.9 377.969C521.805 372.108 524.563 370.631 530.178 367.725C532.153 367.957 534.1 368.386 535.99 369.005C537.634 369.503 539.113 370.433 540.274 371.698C541.435 372.963 542.236 374.516 542.591 376.196C543.083 379.693 540.571 382.697 538.551 385.308V385.308ZM600.168 352.111C597.587 359.766 594.527 367.251 591.007 374.522C586.869 383.486 586.377 392.696 584.308 402.152C583.126 407.472 580.614 413.333 575.393 415.401C573.128 416.081 570.753 416.315 568.399 416.092C566.133 416.092 561.947 416.928 562.095 418.899C560.328 414.714 558.831 410.42 557.613 406.044C556.677 401.414 556.283 396.439 555.544 391.81C554.756 386.934 554.411 382.057 553.918 377.132C553.524 372.551 552.589 367.725 552.638 363.095C552.835 347.826 561.257 328.814 575.591 321.771C579.742 319.57 584.489 318.759 589.135 319.456C594.75 320.294 597.951 321.82 600.464 327.189C603.862 334.577 602.532 344.526 600.168 352.111V352.111Z" fill="url(#paint9_linear_610_712)"/>
<path style="mix-blend-mode:multiply" opacity="0.4" fill-rule="evenodd" clip-rule="evenodd" d="M532.247 366.641C531.508 367.035 530.818 367.38 530.178 367.725C529.006 367.533 527.816 367.483 526.632 367.577L532.247 366.641Z" fill="url(#paint10_linear_610_712)"/>
<path style="mix-blend-mode:multiply" opacity="0.4" fill-rule="evenodd" clip-rule="evenodd" d="M239.387 471.058C239.041 471.107 238.647 471.107 238.253 471.157C239.189 470.566 239.534 470.566 239.387 471.058Z" fill="url(#paint11_linear_610_712)"/>
<path fill-rule="evenodd" clip-rule="evenodd" d="M623.057 432.103C621.895 433.069 619.356 434.886 621.368 436.293C621.912 436.673 622.387 436.473 622.964 436.638C623.414 436.767 623.525 437.119 624.047 436.92C625.684 436.296 625.028 431.652 623.182 432.586L623.057 432.103Z" fill="#00D887"/>
<path fill-rule="evenodd" clip-rule="evenodd" d="M719.755 390.46C718.593 391.426 716.054 393.242 718.067 394.649C718.61 395.029 719.085 394.83 719.662 394.995C720.113 395.124 720.223 395.475 720.745 395.276C722.382 394.652 721.726 390.009 719.88 390.942L719.755 390.46Z" fill="#00D887"/>
<path fill-rule="evenodd" clip-rule="evenodd" d="M677.288 562.193C676.126 563.159 673.587 564.975 675.6 566.382C676.143 566.762 676.618 566.562 677.195 566.728C677.645 566.857 677.756 567.208 678.278 567.009C679.915 566.385 679.259 561.742 677.413 562.675L677.288 562.193Z" fill="#00D887"/>
<path fill-rule="evenodd" clip-rule="evenodd" d="M631.511 448.989C632.21 448.588 632.997 448.365 633.803 448.341C633.981 449.349 634.903 451.317 633.466 452.101C632.262 452.757 632.625 450.604 632.055 450.105L631.511 448.989Z" fill="#00D887"/>
<path fill-rule="evenodd" clip-rule="evenodd" d="M478.008 459.337C479.547 459.944 481.072 460.581 482.585 461.248C483.074 460.816 483.812 460.898 484.389 460.516C485.179 459.907 485.769 459.075 486.082 458.128C486.21 457.541 486.201 456.932 486.057 456.349C485.913 455.766 485.637 455.223 485.25 454.763C484.912 453.989 484.44 453.28 483.857 452.669C483.413 452.456 482.925 452.348 482.432 452.354C481.939 452.36 481.454 452.479 481.014 452.702C479.201 453.945 477.952 455.854 477.54 458.014C477.584 458.561 477.751 459.092 478.028 459.566C478.306 460.04 478.686 460.446 479.141 460.754L478.008 459.337Z" fill="#00D887"/>
<path fill-rule="evenodd" clip-rule="evenodd" d="M260.471 575.653C262.01 576.259 263.535 576.896 265.048 577.564C265.536 577.132 266.275 577.213 266.852 576.831C267.642 576.222 268.232 575.391 268.545 574.443C268.672 573.856 268.664 573.248 268.52 572.664C268.375 572.081 268.099 571.539 267.713 571.078C267.374 570.305 266.903 569.596 266.32 568.984C265.876 568.771 265.388 568.663 264.895 568.669C264.402 568.675 263.917 568.794 263.477 569.017C261.664 570.26 260.415 572.169 260.002 574.329C260.047 574.877 260.214 575.407 260.491 575.881C260.768 576.356 261.149 576.762 261.604 577.07L260.471 575.653Z" fill="#00D887"/>
<path fill-rule="evenodd" clip-rule="evenodd" d="M684.539 636.345C686.077 636.951 687.603 637.588 689.115 638.256C689.604 637.824 690.343 637.906 690.919 637.523C691.71 636.915 692.3 636.083 692.613 635.136C692.74 634.548 692.732 633.94 692.587 633.356C692.443 632.773 692.167 632.231 691.781 631.771C691.442 630.997 690.971 630.288 690.388 629.676C689.943 629.463 689.456 629.356 688.963 629.362C688.47 629.367 687.985 629.486 687.545 629.709C685.731 630.952 684.482 632.861 684.07 635.021C684.115 635.569 684.282 636.099 684.559 636.574C684.836 637.048 685.217 637.454 685.672 637.762L684.539 636.345Z" fill="#00D887"/>
<path fill-rule="evenodd" clip-rule="evenodd" d="M654.041 594.221C655.58 594.827 657.105 595.464 658.618 596.132C659.107 595.7 659.846 595.781 660.422 595.399C661.212 594.79 661.802 593.959 662.115 593.011C662.243 592.424 662.234 591.816 662.09 591.232C661.946 590.649 661.67 590.107 661.283 589.646C660.945 588.873 660.473 588.164 659.89 587.552C659.446 587.339 658.958 587.231 658.465 587.237C657.972 587.243 657.487 587.362 657.048 587.585C655.234 588.828 653.985 590.737 653.573 592.897C653.617 593.444 653.784 593.975 654.062 594.449C654.339 594.924 654.719 595.33 655.174 595.637L654.041 594.221Z" fill="#00D887"/>
<path fill-rule="evenodd" clip-rule="evenodd" d="M230.775 300.243C234.673 301.779 238.536 303.392 242.366 305.083C243.604 303.989 245.475 304.196 246.935 303.227C248.937 301.685 250.43 299.58 251.224 297.181C252.317 293.879 250.629 291.179 249.117 288.659C248.259 286.699 247.065 284.904 245.589 283.355C244.463 282.816 243.228 282.543 241.98 282.557C240.731 282.572 239.503 282.873 238.389 283.438C233.797 286.586 230.634 291.421 229.589 296.891C229.702 298.277 230.125 299.621 230.827 300.822C231.529 302.024 232.492 303.052 233.644 303.831L230.775 300.243Z" fill="#00D887"/>
<path fill-rule="evenodd" clip-rule="evenodd" d="M487.923 158.72C491.82 160.256 495.684 161.869 499.513 163.56C500.752 162.466 502.623 162.673 504.082 161.704C506.084 160.162 507.578 158.056 508.371 155.657C509.465 152.356 507.776 149.656 506.264 147.136C505.406 145.176 504.213 143.381 502.737 141.832C501.611 141.292 500.375 141.02 499.127 141.034C497.878 141.048 496.65 141.35 495.536 141.915C490.944 145.063 487.781 149.898 486.737 155.367C486.85 156.754 487.273 158.098 487.975 159.299C488.677 160.5 489.639 161.529 490.792 162.308L487.923 158.72Z" fill="#00D887"/>
<path fill-rule="evenodd" clip-rule="evenodd" d="M522.099 498.024C521.445 498.479 520.896 499.069 520.49 499.755C521.12 500.545 521.428 501.291 522.506 501.602C522.71 501.685 522.934 501.71 523.152 501.674C523.371 501.638 523.575 501.543 523.742 501.398C524.191 500.96 523.948 500.475 524.069 500.044C524.364 498.997 524.654 498.724 524.06 497.767C523.703 497.192 523.456 496.958 522.83 496.96C522.39 496.962 521.437 497.082 521.216 497.572L522.099 498.024Z" fill="#00D887"/>
<path fill-rule="evenodd" clip-rule="evenodd" d="M525.595 522.423C525.48 522.691 524.294 525.702 525.834 524.832C525.984 524.715 526.105 524.565 526.187 524.394C526.27 524.223 526.311 524.035 526.309 523.845C526.306 523.655 526.26 523.468 526.173 523.299C526.087 523.13 525.962 522.984 525.809 522.871L525.889 522.574L525.595 522.423Z" fill="#00D887"/>
<path fill-rule="evenodd" clip-rule="evenodd" d="M602.629 566.854C601.856 567.821 601.301 568.944 601 570.144C601.535 570.557 602.195 570.773 602.87 570.757C603.772 570.718 603.816 570.426 603.841 569.568C603.981 568.94 604.029 568.295 603.983 567.653C603.809 566.966 603.126 566.266 602.334 566.703L602.629 566.854Z" fill="#00D887"/>
<path fill-rule="evenodd" clip-rule="evenodd" d="M537.683 500.97C538.265 501.498 538.655 502.205 538.791 502.979C537.969 503.183 537.875 502.378 537.754 501.739C537.561 500.721 538.034 501.035 538.511 500.219L538.78 500.276L537.683 500.97Z" fill="#00D887"/>
<path fill-rule="evenodd" clip-rule="evenodd" d="M611.541 435.006C610.89 435.46 610.343 436.047 609.937 436.729C610.327 437.21 610.139 438.079 611.043 438.014C611.679 437.968 612.203 437.285 612.51 436.759C612.805 436.217 612.954 435.607 612.943 434.99C612.965 434.652 612.963 433.213 612.345 434.161L611.541 435.006Z" fill="#00D887"/>
<path fill-rule="evenodd" clip-rule="evenodd" d="M601.552 263.17C602.35 262.876 603.179 262.676 604.023 262.575C604.242 262.577 604.531 262.735 604.77 262.757C605.563 262.828 605.588 262.652 605.975 263.29C606.195 263.588 606.353 263.927 606.44 264.287C606.526 264.647 606.539 265.021 606.478 265.386C606.021 268.283 601.921 263.918 603.35 262.852L601.552 263.17Z" fill="#00D887"/>
<path fill-rule="evenodd" clip-rule="evenodd" d="M288.191 268.338C286.893 268.737 284.916 268.88 284.756 270.381C284.619 271.67 286.745 273.009 287.818 273.359C289.733 273.984 292.861 274.29 293.805 272.118C294.032 271.309 294.092 270.463 293.982 269.63C293.871 268.797 293.592 267.996 293.161 267.274C291.562 264.986 288.282 265.918 285.789 266.892L288.191 268.338Z" fill="#00D887"/>
<path fill-rule="evenodd" clip-rule="evenodd" d="M620.611 570.044C620.028 565.578 619.217 561.166 623.19 558.82C624.425 558.103 625.82 557.708 627.247 557.671C628.674 557.635 630.087 557.957 631.357 558.61C632.856 559.934 634.106 561.514 635.05 563.278C636.41 565.538 636.054 565.544 635.342 567.607C633.708 572.348 632.592 575.471 627.879 575.48C621.65 575.491 620.691 570.648 620.611 564.63V570.044Z" fill="#00D887"/>
<path fill-rule="evenodd" clip-rule="evenodd" d="M623.379 444.46C625.096 443.997 626.647 443.055 627.849 441.744C626.602 440.97 623.871 439.363 623.379 441.707V444.46Z" fill="#00D887"/>
<path fill-rule="evenodd" clip-rule="evenodd" d="M270.373 558.157C272.09 557.695 273.641 556.753 274.843 555.441C273.596 554.668 270.865 553.06 270.373 555.405V558.157Z" fill="#00D887"/>
<path fill-rule="evenodd" clip-rule="evenodd" d="M270.373 595.657C272.09 595.194 273.641 594.253 274.843 592.941C273.596 592.168 270.865 590.561 270.373 592.905V595.657Z" fill="#00D887"/>
<path fill-rule="evenodd" clip-rule="evenodd" d="M534.308 461.455C536.035 459.333 538.53 455.46 541.662 457.584C542.115 457.901 542.495 458.312 542.775 458.788C543.055 459.265 543.23 459.796 543.286 460.346C543.343 460.897 543.281 461.452 543.104 461.976C542.927 462.5 542.639 462.98 542.26 463.383C540.781 464.394 539.109 465.09 537.349 465.429C536.967 465.559 536.558 465.587 536.162 465.511C535.766 465.435 535.396 465.257 535.09 464.996C534.783 464.734 534.55 464.396 534.413 464.017C534.276 463.638 534.24 463.229 534.308 462.832V461.455Z" fill="#00D887"/>
<path fill-rule="evenodd" clip-rule="evenodd" d="M592.869 558.006C594.596 555.883 597.09 552.011 600.222 554.134C600.675 554.451 601.055 554.862 601.335 555.339C601.616 555.815 601.79 556.347 601.847 556.897C601.904 557.447 601.841 558.003 601.664 558.527C601.487 559.051 601.2 559.53 600.821 559.933C599.341 560.944 597.67 561.641 595.91 561.979C595.528 562.109 595.119 562.138 594.723 562.062C594.327 561.986 593.957 561.808 593.65 561.546C593.344 561.284 593.11 560.947 592.973 560.568C592.836 560.188 592.8 559.78 592.869 559.382V558.006Z" fill="#00D887"/>
<path fill-rule="evenodd" clip-rule="evenodd" d="M584.05 238.033C586.749 238.488 591.347 238.747 591.046 242.519C590.87 244.71 588.287 246.774 586.297 245.9C584.688 245.112 583.257 244.002 582.094 242.638C581.793 242.37 581.566 242.029 581.437 241.647C581.307 241.264 581.28 240.855 581.356 240.459C581.433 240.063 581.611 239.694 581.873 239.388C582.136 239.081 582.473 238.848 582.853 238.712L584.05 238.033Z" fill="#00D887"/>
<path fill-rule="evenodd" clip-rule="evenodd" d="M574.461 583.03C576.188 580.907 578.683 577.035 581.814 579.159C582.267 579.476 582.647 579.886 582.927 580.363C583.208 580.84 583.382 581.371 583.439 581.921C583.496 582.471 583.434 583.027 583.257 583.551C583.08 584.075 582.792 584.555 582.413 584.957C580.933 585.969 579.262 586.665 577.502 587.004C577.12 587.134 576.711 587.162 576.315 587.086C575.919 587.01 575.549 586.833 575.242 586.571C574.936 586.309 574.702 585.972 574.565 585.592C574.428 585.213 574.393 584.804 574.461 584.407V583.03Z" fill="#00D887"/>
<path fill-rule="evenodd" clip-rule="evenodd" d="M494.636 458.25C492.425 459.653 488.705 461.394 488.329 464.427C488.202 465.214 488.362 466.02 488.778 466.699C489.194 467.378 489.84 467.886 490.599 468.129C491.374 468.477 492.214 468.658 493.063 468.661C493.913 468.665 494.754 468.491 495.533 468.151C497.781 467.158 499.636 465.448 500.808 463.288C501.122 462.632 501.269 461.91 501.238 461.184C501.206 460.458 500.996 459.75 500.627 459.125C500.22 458.189 499.487 457.433 498.565 456.997C495.739 456.016 494.041 458.789 491.95 460.041L494.636 458.25Z" fill="#00D887"/>
<path fill-rule="evenodd" clip-rule="evenodd" d="M501.797 450.194C502.968 450.598 504.018 451.29 504.85 452.207C503.65 452.617 502.36 453.568 501.127 453.128C500.788 452.992 500.48 452.791 500.22 452.536C499.96 452.281 499.753 451.977 499.61 451.641C499.468 451.306 499.393 450.946 499.39 450.581C499.387 450.217 499.457 449.855 499.594 449.518C499.79 448.685 501.288 447.222 502.144 447.588C502.577 447.774 502.659 448.363 502.801 448.74C503.099 449.532 503.118 449.365 502.692 450.194L501.797 450.194Z" fill="#00D887"/>
<path fill-rule="evenodd" clip-rule="evenodd" d="M562.821 436.877C556.674 441.912 551.737 448.264 548.373 455.462C546.794 459.197 549.6 459.383 552.991 458.721C559.562 457.438 566.173 455.621 572.665 453.956C576.509 452.97 582.024 450.943 584.694 447.677C586.734 444.78 587.607 441.222 587.139 437.71C586.508 433.307 583.376 431.591 579.378 430.485C570.242 427.956 557.27 437.819 553.879 446.235L562.821 436.877Z" fill="#00D887"/>
<path fill-rule="evenodd" clip-rule="evenodd" d="M530.243 470.139C532.091 470.178 533.903 470.649 535.535 471.515C535.061 472.075 535.216 472.836 534.968 473.492C534.511 474.525 533.758 475.399 532.803 476.002C531.983 476.482 531.072 476.788 530.128 476.899C529.184 477.011 528.228 476.926 527.318 476.649C522.418 474.792 529.933 468.98 531.586 471.034L530.243 470.139Z" fill="#00D887"/>
<path fill-rule="evenodd" clip-rule="evenodd" d="M256.801 657.227C256.147 657.682 255.598 658.273 255.192 658.958C255.822 659.748 256.131 660.494 257.207 660.805C257.412 660.888 257.636 660.913 257.854 660.877C258.072 660.841 258.277 660.746 258.444 660.601C258.893 660.163 258.65 659.678 258.772 659.246C259.066 658.2 259.356 657.927 258.762 656.97C258.405 656.396 258.158 656.161 257.532 656.164C257.092 656.166 256.139 656.285 255.918 656.775L256.801 657.227Z" fill="#00D887"/>
<path fill-rule="evenodd" clip-rule="evenodd" d="M260.296 681.626C260.182 681.893 258.996 684.905 260.536 684.035C260.686 683.918 260.806 683.768 260.889 683.597C260.971 683.426 261.013 683.238 261.01 683.048C261.008 682.858 260.962 682.671 260.875 682.502C260.788 682.333 260.664 682.186 260.511 682.073L260.591 681.777L260.296 681.626Z" fill="#00D887"/>
<path fill-rule="evenodd" clip-rule="evenodd" d="M272.384 660.173C272.967 660.701 273.357 661.408 273.492 662.182C272.671 662.386 272.577 661.581 272.456 660.942C272.262 659.923 272.736 660.238 273.212 659.422L273.482 659.479L272.384 660.173Z" fill="#00D887"/>
<path fill-rule="evenodd" clip-rule="evenodd" d="M264.944 629.342C266.792 629.381 268.604 629.852 270.236 630.718C269.762 631.278 269.918 632.038 269.669 632.694C269.212 633.727 268.458 634.601 267.504 635.205C266.684 635.685 265.773 635.991 264.829 636.102C263.885 636.213 262.929 636.128 262.019 635.852C257.119 633.995 264.634 628.182 266.287 630.237L264.944 629.342Z" fill="#00D887"/>
<path fill-rule="evenodd" clip-rule="evenodd" d="M574.454 242.369C576.187 243.339 577.775 244.547 579.171 245.959C580.666 247.645 582.01 249.458 583.189 251.379C583.758 252.392 585.132 254.607 583.109 254.887C580.914 255.19 577.028 252.3 575.436 251.176C572.633 249.465 570.149 247.279 568.094 244.718C567.096 243.318 565.575 240.891 566.587 239.206C566.96 238.606 567.504 238.131 568.148 237.841C568.792 237.551 569.508 237.46 570.204 237.578C571.631 237.586 573.001 238.137 574.038 239.118C574.625 239.591 577.473 242.484 576.506 243.264L574.454 242.369Z" fill="#00D887"/>
<path fill-rule="evenodd" clip-rule="evenodd" d="M595.676 428.449C594.869 429.033 588.684 432.465 591.629 433.952C593.677 434.655 595.909 434.614 597.93 433.836C599.36 433.228 600.808 432.288 599.911 430.645C598.096 427.322 593.548 429.239 591.2 430.687L595.676 428.449Z" fill="#00D887"/>
<path fill-rule="evenodd" clip-rule="evenodd" d="M640.186 226.026C638.16 227.49 622.637 236.105 630.028 239.835C634.001 241.841 641.804 241.261 645.843 239.546C649.433 238.021 653.066 235.66 650.813 231.535C646.258 223.198 634.844 228.008 628.953 231.643L640.186 226.026Z" fill="#00D887"/>
<path fill-rule="evenodd" clip-rule="evenodd" d="M272.607 578.494C273.259 582.119 274.002 586.086 277.158 588.484C280.427 590.97 284.124 589.965 287.335 588.07C289.713 586.667 291.961 585.17 294.286 583.738C295.642 582.903 296.831 582.694 296.89 580.756C296.506 578.359 295.449 576.121 293.841 574.302C292.093 572.141 289.848 570.435 287.298 569.329C282.427 567.511 273.132 569.319 273.245 575.944L272.607 578.494Z" fill="#00D887"/>
<path fill-rule="evenodd" clip-rule="evenodd" d="M598.646 585.621C598.782 588.279 599.924 590.786 601.84 592.633C602.911 593.339 604.177 593.691 605.459 593.639C606.741 593.587 607.974 593.133 608.984 592.342C610.653 591.357 612.231 590.306 613.862 589.301C614.814 588.715 615.649 588.568 615.691 587.208C615.421 585.526 614.679 583.955 613.551 582.678C612.323 581.162 610.748 579.964 608.958 579.187C605.538 577.911 599.015 579.18 599.094 583.831L598.646 585.621Z" fill="#00D887"/>
<path style="mix-blend-mode:screen" d="M645.043 605.4C667.56 596.013 678.203 570.151 668.817 547.635C659.43 525.119 633.568 514.475 611.052 523.861C588.535 533.248 577.892 559.111 587.278 581.627C596.665 604.143 622.527 614.786 645.043 605.4Z" fill="url(#paint12_radial_610_712)"/>
<path style="mix-blend-mode:screen" d="M568.928 485.559C591.577 485.559 609.937 467.199 609.937 444.55C609.937 421.901 591.577 403.541 568.928 403.541C546.279 403.541 527.918 421.901 527.918 444.55C527.918 467.199 546.279 485.559 568.928 485.559Z" fill="url(#paint13_radial_610_712)"/>
<path style="mix-blend-mode:screen" d="M284.75 621.733C309.144 621.733 328.92 601.958 328.92 577.563C328.92 553.169 309.144 533.394 284.75 533.394C260.356 533.394 240.58 553.169 240.58 577.563C240.58 601.958 260.356 621.733 284.75 621.733Z" fill="url(#paint14_radial_610_712)"/>
<path style="mix-blend-mode:screen" d="M395.917 393.438C441.114 363.706 462.3 316.113 443.237 287.135C424.174 258.158 372.082 258.769 326.886 288.502C281.689 318.234 260.504 365.827 279.566 394.805C298.629 423.782 350.721 423.17 395.917 393.438Z" fill="url(#paint15_radial_610_712)"/>
<defs>
<radialGradient id="paint0_radial_610_712" cx="0" cy="0" r="1" gradientUnits="userSpaceOnUse" gradientTransform="translate(456.791 456.79) scale(323)">
<stop offset="0.00559" stop-color="#009887"/>
<stop offset="1"/>
</radialGradient>
<radialGradient id="paint1_radial_610_712" cx="0" cy="0" r="1" gradientUnits="userSpaceOnUse" gradientTransform="translate(643592 -1206.12) rotate(-45) scale(63310.6)">
<stop offset="0.00559" stop-color="#009887"/>
<stop offset="1"/>
</radialGradient>
<radialGradient id="paint2_radial_610_712" cx="0" cy="0" r="1" gradientUnits="userSpaceOnUse" gradientTransform="translate(456.791 456.791) scale(275.153)">
<stop offset="0.00559" stop-color="#008F87"/>
<stop offset="0.17253" stop-color="#008B83"/>
<stop offset="0.33903" stop-color="#007F78"/>
<stop offset="0.50551" stop-color="#006B65"/>
<stop offset="0.67199" stop-color="#004F4B"/>
<stop offset="0.83688" stop-color="#002B29"/>
<stop offset="1"/>
</radialGradient>
<radialGradient id="paint3_radial_610_712" cx="0" cy="0" r="1" gradientUnits="userSpaceOnUse" gradientTransform="translate(312.446 347.773) scale(374.826)">
<stop offset="0.00559" stop-color="#11D887"/>
<stop offset="0.09373" stop-color="#11D287"/>
<stop offset="0.21097" stop-color="#10C187"/>
<stop offset="0.34458" stop-color="#0EA687"/>
<stop offset="0.49032" stop-color="#0B7F87"/>
<stop offset="0.64421" stop-color="#084E87"/>
<stop offset="0.68436" stop-color="#074087"/>
<stop offset="0.74317" stop-color="#073B80"/>
<stop offset="0.82823" stop-color="#062C6D"/>
<stop offset="0.92875" stop-color="#04144E"/>
<stop offset="1" stop-color="#030033"/>
</radialGradient>
<linearGradient id="paint4_linear_610_712" x1="223.615" y1="392.898" x2="559.276" y2="392.898" gradientUnits="userSpaceOnUse">
<stop offset="0.01117" stop-color="#32DD87"/>
<stop offset="0.32238" stop-color="#33DA87"/>
<stop offset="0.55058" stop-color="#37D187"/>
<stop offset="0.75226" stop-color="#3CC187"/>
<stop offset="0.9375" stop-color="#45AA87"/>
<stop offset="1" stop-color="#48A187"/>
</linearGradient>
<radialGradient id="paint5_radial_610_712" cx="0" cy="0" r="1" gradientUnits="userSpaceOnUse" gradientTransform="translate(286.437 298.087) scale(307.131)">
<stop stop-color="#B0FC61"/>
<stop offset="1"/>
</radialGradient>
<linearGradient id="paint6_linear_610_712" x1="225.743" y1="326.85" x2="519.199" y2="326.85" gradientUnits="userSpaceOnUse">
<stop stop-color="#69BF87"/>
<stop offset="1" stop-color="#2E6F3B"/>
</linearGradient>
<linearGradient id="paint7_linear_610_712" x1="318923" y1="254241" x2="394204" y2="254241" gradientUnits="userSpaceOnUse">
<stop stop-color="#69BF87"/>
<stop offset="1" stop-color="#2E6F3B"/>
</linearGradient>
<linearGradient id="paint8_linear_610_712" x1="313821" y1="246090" x2="388801" y2="246090" gradientUnits="userSpaceOnUse">
<stop stop-color="#69BF87"/>
<stop offset="1" stop-color="#2E6F3B"/>
</linearGradient>
<linearGradient id="paint9_linear_610_712" x1="304002" y1="268632" x2="376447" y2="268632" gradientUnits="userSpaceOnUse">
<stop stop-color="#69BF87"/>
<stop offset="1" stop-color="#2E6F3B"/>
</linearGradient>
<linearGradient id="paint10_linear_610_712" x1="526.632" y1="367.183" x2="532.247" y2="367.183" gradientUnits="userSpaceOnUse">
<stop stop-color="#99DA87"/>
<stop offset="1" stop-color="#5B8760"/>
</linearGradient>
<linearGradient id="paint11_linear_610_712" x1="1111.77" y1="856.649" x2="1112.36" y2="856.649" gradientUnits="userSpaceOnUse">
<stop stop-color="#99DA87"/>
<stop offset="1" stop-color="#5B8760"/>
</linearGradient>
<radialGradient id="paint12_radial_610_712" cx="0" cy="0" r="1" gradientUnits="userSpaceOnUse" gradientTransform="translate(628.047 564.631) scale(44.1699)">
<stop stop-color="#007787"/>
<stop offset="0.19866" stop-color="#005560"/>
<stop offset="0.44635" stop-color="#003037"/>
<stop offset="0.67124" stop-color="#001619"/>
<stop offset="0.86333" stop-color="#000607"/>
<stop offset="1"/>
</radialGradient>
<radialGradient id="paint13_radial_610_712" cx="0" cy="0" r="1" gradientUnits="userSpaceOnUse" gradientTransform="translate(15984 11441.7) scale(1456.65 1456.65)">
<stop stop-color="#007787"/>
<stop offset="0.19866" stop-color="#005560"/>
<stop offset="0.44635" stop-color="#003037"/>
<stop offset="0.67124" stop-color="#001619"/>
<stop offset="0.86333" stop-color="#000607"/>
<stop offset="1"/>
</radialGradient>
<radialGradient id="paint14_radial_610_712" cx="0" cy="0" r="1" gradientUnits="userSpaceOnUse" gradientTransform="translate(6015.91 17511.1) scale(1689.83)">
<stop stop-color="#007787"/>
<stop offset="0.19866" stop-color="#005560"/>
<stop offset="0.44635" stop-color="#003037"/>
<stop offset="0.67124" stop-color="#001619"/>
<stop offset="0.86333" stop-color="#000607"/>
<stop offset="1"/>
</radialGradient>
<radialGradient id="paint15_radial_610_712" cx="0" cy="0" r="1" gradientUnits="userSpaceOnUse" gradientTransform="translate(361.405 340.971) rotate(-33.3382) scale(97.9589 62.8011)">
<stop stop-color="#00FB87"/>
<stop offset="0.16356" stop-color="#00C56A"/>
<stop offset="0.39175" stop-color="#008045"/>
<stop offset="0.59788" stop-color="#004927"/>
<stop offset="0.77428" stop-color="#002112"/>
<stop offset="0.91411" stop-color="#000905"/>
<stop offset="1"/>
</radialGradient>
</defs>
</svg>
